<svg xmlns="http://www.w3.org/2000/svg" viewBox="0 0 480 270" preserveAspectRatio="xMidYMid slice">
        <defs>
          <linearGradient id="bg-147" x1="0" y1="0" x2="1" y2="1">
            <stop offset="0%" stop-color="#171410"/><stop offset="100%" stop-color="#5b3b23"/>
          </linearGradient>
          <linearGradient id="panel-147" x1="0" y1="1" x2="0" y2="0">
            <stop offset="0%" stop-color="rgba(6,8,12,0.94)"/><stop offset="100%" stop-color="rgba(6,8,12,0.02)"/>
          </linearGradient>
        </defs>
        <rect width="480" height="270" fill="url(#bg-147)"/>
        <circle cx="344" cy="82" r="36" fill="#d49a63" opacity="0.18"/>
        <rect x="74" y="162" width="232" height="92" rx="18" fill="rgba(10,10,14,0.54)" stroke="rgba(255,255,255,0.14)"/><g fill="rgba(255,255,255,0.9)"><rect x="96" y="178" width="16" height="48" rx="4"/><rect x="120" y="170" width="16" height="56" rx="4"/><rect x="144" y="162" width="16" height="64" rx="4"/><rect x="168" y="174" width="16" height="52" rx="4"/><rect x="192" y="166" width="16" height="60" rx="4"/><rect x="216" y="178" width="16" height="48" rx="4"/><rect x="240" y="162" width="16" height="64" rx="4"/></g>
        <rect y="164" width="480" height="106" fill="url(#panel-147)"/>
        <rect x="18" y="18" width="104" height="24" rx="12" fill="rgba(10,10,12,0.42)" stroke="rgba(255,255,255,0.08)"/>
        <text x="70" y="34" fill="rgba(255,255,255,0.9)" font-family="Arial, sans-serif" font-size="11" font-weight="700" text-anchor="middle" letter-spacing="1">HOUSE</text>
        <text x="24" y="192" fill="#f8fafc" fill-opacity="1" font-family="Arial, sans-serif" font-size="18" font-weight="800"><tspan x="24" dy="0">Luce sul Club:</tspan><tspan x="24" dy="21">senza fretta</tspan></text>
        <text x="430" y="244" fill="rgba(255,255,255,0.9)" font-family="Arial, sans-serif" font-size="22" text-anchor="end">▣</text>
      </svg>
