
      <svg xmlns="http://www.w3.org/2000/svg" viewBox="0 0 480 270" preserveAspectRatio="xMidYMid slice">
        <defs>
          <linearGradient id="bg-48" x1="0" y1="0" x2="1" y2="1">
            <stop offset="0%" stop-color="#1a120d"/><stop offset="100%" stop-color="#ea580c"/>
          </linearGradient>
          <linearGradient id="panel-48" x1="0" y1="1" x2="0" y2="0">
            <stop offset="0%" stop-color="rgba(6,8,12,0.94)"/><stop offset="100%" stop-color="rgba(6,8,12,0.02)"/>
          </linearGradient>
        </defs>
        <rect width="480" height="270" fill="url(#bg-48)"/>
        <circle cx="275" cy="69" r="29" fill="#fdba74" opacity="0.18"/>
        <rect x="74" y="153" width="232" height="92" rx="18" fill="rgba(10,10,14,0.54)" stroke="rgba(255,255,255,0.14)"/><g fill="rgba(255,255,255,0.9)"><rect x="96" y="169" width="16" height="48" rx="4"/><rect x="120" y="161" width="16" height="56" rx="4"/><rect x="144" y="153" width="16" height="64" rx="4"/><rect x="168" y="165" width="16" height="52" rx="4"/><rect x="192" y="157" width="16" height="60" rx="4"/><rect x="216" y="169" width="16" height="48" rx="4"/><rect x="240" y="153" width="16" height="64" rx="4"/></g>
        <rect y="164" width="480" height="106" fill="url(#panel-48)"/>
        <rect x="18" y="18" width="104" height="24" rx="12" fill="rgba(10,10,12,0.42)" stroke="rgba(255,255,255,0.08)"/>
        <text x="70" y="34" fill="rgba(255,255,255,0.9)" font-family="Arial, sans-serif" font-size="11" font-weight="700" text-anchor="middle" letter-spacing="1">HOUSE</text>
        <text x="24" y="198" fill="#f8fafc" fill-opacity="1" font-family="Arial, sans-serif" font-size="19" font-weight="800"><tspan x="24" dy="0">ЧИСТЫЙ HOUSE С</tspan><tspan x="24" dy="22">ПЕРВОГО</tspan></text>
        <text x="24" y="248" fill="rgba(248,250,252,0.92)" fill-opacity="1" font-family="Arial, sans-serif" font-size="13" font-weight="600"><tspan x="24" dy="0">так звучит поздний клуб</tspan></text>
        <text x="430" y="244" fill="rgba(255,255,255,0.9)" font-family="Arial, sans-serif" font-size="22" text-anchor="end">▣</text>
      </svg>
    