
      <svg xmlns="http://www.w3.org/2000/svg" viewBox="0 0 480 270" preserveAspectRatio="xMidYMid slice">
        <defs>
          <linearGradient id="bg-65" x1="0" y1="0" x2="1" y2="1">
            <stop offset="0%" stop-color="#140c1c"/><stop offset="100%" stop-color="#6b21a8"/>
          </linearGradient>
          <linearGradient id="panel-65" x1="0" y1="1" x2="0" y2="0">
            <stop offset="0%" stop-color="rgba(6,8,12,0.94)"/><stop offset="100%" stop-color="rgba(6,8,12,0.02)"/>
          </linearGradient>
        </defs>
        <rect width="480" height="270" fill="url(#bg-65)"/>
        <circle cx="301" cy="95" r="41" fill="#f9a8d4" opacity="0.18"/>
        <rect x="58" y="159" width="214" height="88" rx="18" fill="rgba(11,10,18,0.62)" stroke="rgba(255,255,255,0.12)"/><g fill="rgba(255,255,255,0.88)"><rect x="76" y="171" width="16" height="62" rx="4"/><rect x="98" y="171" width="16" height="62" rx="4"/><rect x="120" y="171" width="16" height="62" rx="4"/><rect x="142" y="171" width="16" height="62" rx="4"/><rect x="164" y="171" width="16" height="62" rx="4"/><rect x="186" y="171" width="16" height="62" rx="4"/><rect x="208" y="171" width="16" height="62" rx="4"/></g><circle cx="370" cy="197" r="52" fill="rgba(14,10,16,0.72)" stroke="rgba(255,255,255,0.14)"/>
        <rect y="164" width="480" height="106" fill="url(#panel-65)"/>
        <rect x="18" y="18" width="100" height="24" rx="12" fill="rgba(10,10,12,0.42)" stroke="rgba(255,255,255,0.08)"/>
        <text x="68" y="34" fill="rgba(255,255,255,0.9)" font-family="Arial, sans-serif" font-size="11" font-weight="700" text-anchor="middle" letter-spacing="1">МУЗЫКА</text>
        <text x="24" y="198" fill="#f8fafc" fill-opacity="1" font-family="Arial, sans-serif" font-size="19" font-weight="800"><tspan x="24" dy="0">ЭТОТ ГОЛОС УЖЕ В</tspan><tspan x="24" dy="22">КАДРЕ</tspan></text>
        <text x="24" y="248" fill="rgba(248,250,252,0.92)" fill-opacity="1" font-family="Arial, sans-serif" font-size="13" font-weight="600"><tspan x="24" dy="0">после этого темп уже</tspan></text>
        <text x="430" y="244" fill="rgba(255,255,255,0.9)" font-family="Arial, sans-serif" font-size="22" text-anchor="end">♫</text>
      </svg>
    