
      <svg xmlns="http://www.w3.org/2000/svg" viewBox="0 0 480 270" preserveAspectRatio="xMidYMid slice">
        <defs>
          <linearGradient id="bg-0" x1="0" y1="0" x2="1" y2="1">
            <stop offset="0%" stop-color="#08111f"/><stop offset="100%" stop-color="#0e5a6f"/>
          </linearGradient>
          <linearGradient id="panel-0" x1="0" y1="1" x2="0" y2="0">
            <stop offset="0%" stop-color="rgba(6,8,12,0.94)"/><stop offset="100%" stop-color="rgba(6,8,12,0.02)"/>
          </linearGradient>
        </defs>
        <rect width="480" height="270" fill="url(#bg-0)"/>
        <circle cx="356" cy="94" r="36" fill="#5eead4" opacity="0.18"/>
        <path d="M0 176L72 120L140 148L216 104L300 156L388 132L480 170V270H0Z" fill="rgba(255,255,255,0.12)"/><path d="M24 210C96 178 176 180 264 208S408 232 480 214" fill="none" stroke="rgba(255,255,255,0.16)" stroke-width="8" stroke-linecap="round"/>
        <rect y="164" width="480" height="106" fill="url(#panel-0)"/>
        <rect x="18" y="18" width="100" height="24" rx="12" fill="rgba(10,10,12,0.42)" stroke="rgba(255,255,255,0.08)"/>
        <text x="68" y="34" fill="rgba(255,255,255,0.9)" font-family="Arial, sans-serif" font-size="11" font-weight="700" text-anchor="middle" letter-spacing="1">ПУТЕШЕСТВИЯ</text>
        <text x="24" y="198" fill="#f8fafc" fill-opacity="1" font-family="Arial, sans-serif" font-size="19" font-weight="800"><tspan x="24" dy="0">ОСТРОВ, КОТОРОГО</tspan><tspan x="24" dy="22">НЕТ</tspan></text>
        <text x="24" y="248" fill="rgba(248,250,252,0.92)" fill-opacity="1" font-family="Arial, sans-serif" font-size="13" font-weight="600"><tspan x="24" dy="0">выглядит слишком</tspan></text>
        <text x="430" y="244" fill="rgba(255,255,255,0.9)" font-family="Arial, sans-serif" font-size="22" text-anchor="end">↗</text>
      </svg>
    